<?xml version="1.0" encoding="UTF-8"?>
<svg xmlns="http://www.w3.org/2000/svg" xmlns:xlink="http://www.w3.org/1999/xlink" width="2022" height="3001" viewBox="0 0 2022 3001">
<path fill-rule="nonzero" fill="rgb(219.993591%, 319.993591%, 219.993591%)" fill-opacity="1" d="M 963.914062 2071.738281 C 971.933594 2057.773438 967.117188 2039.929688 953.152344 2031.910156 C 939.1875 2023.890625 921.34375 2028.707031 913.324219 2042.671875 L 856.878906 2140.4375 C 848.859375 2154.40625 853.675781 2172.246094 867.640625 2180.265625 C 881.605469 2188.289062 899.449219 2183.472656 907.46875 2169.503906 Z M 548.449219 1962.25 C 540.359375 1976.21875 545.128906 1994.109375 559.09375 2002.199219 C 573.058594 2010.289062 590.949219 2005.523438 599.039062 1991.558594 L 655.488281 1893.78125 C 663.578125 1879.820312 658.8125 1861.929688 644.847656 1853.839844 C 630.878906 1845.75 612.992188 1850.511719 604.898438 1864.480469 L 548.449219 1962.25 "/>
<path fill-rule="nonzero" fill="rgb(250.193787%, 50.193787%, 50.193787%)" fill-opacity="1" d="M 184.308594 2989.832031 C 75.101562 2886.167969 132.703125 2765.132812 185.234375 2654.820312 C 202.632812 2618.285156 219.355469 2583.171875 227.4375 2552.621094 C 196.496094 2579.121094 147.011719 2599.613281 68.914062 2588.359375 L 73.03125 2559.40625 L 68.851562 2588.402344 C 52.839844 2586.097656 41.730469 2571.238281 44.035156 2555.226562 C 45.105469 2547.765625 48.90625 2541.363281 54.285156 2536.890625 C 102.152344 2491.707031 120.644531 2406.769531 140.023438 2317.730469 C 182.773438 2121.277344 229.394531 1907.039062 577.066406 1947.839844 L 573.742188 1976.910156 L 577.15625 1947.800781 C 593.226562 1949.691406 604.726562 1964.25 602.84375 1980.320312 C 601.800781 1989.21875 596.859375 1996.730469 589.925781 2001.328125 C 575.882812 2012.4375 477.445312 2093.242188 461.414062 2186.640625 C 485.027344 2174.226562 515.664062 2166.011719 550.769531 2175.070312 L 543.554688 2203.339844 L 550.878906 2174.972656 C 566.539062 2179.015625 575.964844 2195 571.925781 2210.660156 C 570.3125 2216.917969 566.789062 2222.179688 562.152344 2225.976562 C 550.769531 2236.644531 453.289062 2332.132812 478.828125 2452.855469 C 543.550781 2379.007812 633.246094 2353.144531 712.867188 2330.203125 C 807.554688 2302.929688 884.769531 2280.648438 853.917969 2162.355469 L 853.828125 2162.378906 C 849.742188 2146.722656 859.121094 2130.714844 874.777344 2126.632812 C 884.015625 2124.222656 893.386719 2126.5 900.347656 2131.996094 C 931.046875 2152.355469 951.761719 2181.257812 963.800781 2216.082031 C 982.515625 2270.164062 979.65625 2338.449219 960.964844 2410.09375 C 942.894531 2479.375 909.863281 2552.671875 867.378906 2619.34375 C 800.027344 2725.050781 707.996094 2815.050781 612.519531 2848.097656 L 612.5625 2848.222656 C 597.273438 2853.507812 580.582031 2845.398438 575.292969 2830.109375 C 571.410156 2818.886719 574.753906 2806.898438 582.859375 2799.230469 C 588.429688 2793.644531 633.398438 2747.597656 655.1875 2693.316406 C 596.332031 2763.25 523.769531 2783.390625 451.871094 2803.3125 C 366.582031 2826.953125 282.371094 2850.320312 233.851562 2980.867188 L 233.957031 2980.902344 C 228.324219 2996.066406 211.457031 3003.796875 196.296875 2998.164062 C 191.492188 2996.378906 187.429688 2993.464844 184.308594 2989.832031 "/>
<path fill-rule="nonzero" fill="rgb(219.993591%, 219.993591%, 19.993591%)" fill-opacity="1" d="M 556.761719 1768.511719 C 553.730469 1784.371094 564.132812 1799.699219 579.992188 1802.738281 C 595.855469 1805.769531 611.183594 1795.359375 614.214844 1779.5 C 926.996094 163.359375 1753.390625 64.410156 1881.199219 58.769531 C 1940.179688 172.121094 2267.96875 937.410156 1024.609375 2016.476562 C 1012.410156 2027.03125 1011.078125 2045.488281 1021.628906 2057.683594 C 1032.179688 2069.878906 1050.640625 2071.210938 1062.839844 2060.660156 C 2418.511719 884.121094 1945.921875 52.25 1924.28125 15.800781 C 1919.460938 6.53125 1909.828125 0.140625 1898.648438 0 L 1898.28125 29.300781 L 1898.628906 0.109375 C 1895.78125 0.078125 905.082031 -31.261719 556.761719 1768.511719 "/>
<path fill-rule="nonzero" fill="rgb(219.993591%, 219.993591%, 19.993591%)" fill-opacity="1" d="M 683.011719 1395.609375 C 699.125 1395.921875 712.460938 1383.109375 712.769531 1367 C 713.082031 1350.890625 700.273438 1337.550781 684.160156 1337.238281 C 609.175781 1335.671875 489.390625 1343.621094 363.425781 1393.910156 C 236.808594 1444.46875 104.214844 1537.480469 4.796875 1705.710938 L 29.972656 1720.589844 L 4.746094 1705.679688 C -3.480469 1719.609375 1.132812 1737.578125 15.066406 1745.808594 C 22.277344 1750.070312 30.566406 1750.890625 38.027344 1748.761719 C 67.875 1742.640625 415.207031 1673.75 584.449219 1747.359375 C 599.238281 1753.808594 616.464844 1747.050781 622.90625 1732.261719 C 629.351562 1717.46875 622.589844 1700.238281 607.800781 1693.800781 C 463.472656 1631.03125 211.410156 1660.53125 91.335938 1679.839844 C 177.652344 1559.148438 283.453125 1488.671875 384.9375 1448.148438 C 501.761719 1401.511719 613.199219 1394.140625 683.011719 1395.609375 "/>
<path fill-rule="nonzero" fill="rgb(219.993591%, 219.993591%, 19.993591%)" fill-opacity="1" d="M 1374.128906 1733 C 1365.730469 1719.21875 1347.738281 1714.859375 1333.960938 1723.269531 C 1320.191406 1731.671875 1315.828125 1749.660156 1324.230469 1763.429688 C 1367.570312 1834.039062 1431.808594 1965.089844 1436.679688 2127.269531 C 1439.378906 2217.265625 1423.820312 2317.054688 1376.28125 2421.746094 C 1332.511719 2306.933594 1230.378906 2070.300781 1101.96875 1978.519531 C 1088.820312 1969.171875 1070.570312 1972.25 1061.21875 1985.390625 C 1051.871094 1998.53125 1054.949219 2016.78125 1068.101562 2026.132812 C 1218.851562 2133.878906 1334.929688 2477.421875 1343.308594 2502.703125 C 1345.269531 2510.074219 1350.078125 2516.675781 1357.238281 2520.710938 C 1371.328125 2528.65625 1389.199219 2523.667969 1397.148438 2509.578125 L 1371.628906 2495.1875 L 1397.03125 2509.492188 C 1474.148438 2372.714844 1498.539062 2241.765625 1495.050781 2125.664062 C 1489.769531 1949.980469 1420.710938 1808.898438 1374.128906 1733 "/>
<path fill-rule="nonzero" fill="rgb(219.993591%, 219.993591%, 19.993591%)" fill-opacity="1" d="M 582.59375 1738.660156 L 1086.910156 2029.8125 L 1072.371094 2055.109375 L 1087.019531 2029.738281 C 1101.03125 2037.828125 1105.828125 2055.753906 1097.738281 2069.757812 C 1097.421875 2070.320312 1097.078125 2070.859375 1096.730469 2071.386719 L 1063.339844 2129.214844 L 1063.398438 2129.246094 C 1055.308594 2143.257812 1037.378906 2148.058594 1023.371094 2139.96875 C 1022.808594 2139.644531 1022.269531 2139.304688 1021.75 2138.949219 L 516.703125 1847.371094 L 516.671875 1847.421875 C 502.664062 1839.328125 497.859375 1821.410156 505.949219 1807.398438 C 506.273438 1806.839844 506.613281 1806.300781 506.96875 1805.769531 L 540.351562 1747.949219 L 540.296875 1747.921875 C 548.386719 1733.910156 566.3125 1729.109375 580.316406 1737.199219 C 581.105469 1737.648438 581.867188 1738.140625 582.59375 1738.660156 Z M 1032.46875 2065.757812 L 576.394531 1802.441406 L 571.253906 1811.351562 L 1027.328125 2074.664062 L 1032.46875 2065.757812 "/>
<path fill-rule="nonzero" fill="rgb(250.193787%, 250.193787%, 250.193787%)" fill-opacity="1" d="M 1696.871094 675.988281 C 1682.308594 624.121094 1648.109375 577.261719 1597.660156 547.398438 C 1596.910156 547.050781 1596.160156 546.671875 1595.441406 546.25 L 1610.089844 520.878906 L 1595.441406 546.171875 C 1543.820312 516.371094 1485.261719 509.828125 1432.328125 523.339844 C 1380.230469 536.628906 1333.628906 569.460938 1304.660156 618.648438 L 1303.839844 620.179688 L 1303.78125 620.140625 L 1303.761719 620.179688 L 1303.710938 620.148438 C 1274.859375 670.199219 1269.5 727.609375 1284.191406 779.929688 C 1298.941406 832.480469 1333.921875 879.910156 1385.621094 909.761719 C 1437.230469 939.558594 1495.789062 946.101562 1548.71875 932.589844 C 1600.820312 919.289062 1647.429688 886.46875 1676.390625 837.28125 L 1677.21875 835.75 L 1677.269531 835.78125 L 1677.289062 835.75 L 1677.339844 835.78125 C 1706.199219 785.730469 1711.558594 728.320312 1696.871094 675.988281 "/>
<path fill-rule="nonzero" fill="rgb(50.193787%, 150.193787%, 180.193787%)" fill-opacity="1" d="M 1627.191406 497.078125 C 1691.28125 534.980469 1734.710938 594.429688 1753.171875 660.199219 C 1771.949219 727.101562 1765.011719 800.628906 1727.878906 864.929688 L 1702.589844 850.398438 L 1727.960938 865.050781 C 1727.601562 865.671875 1727.210938 866.28125 1726.820312 866.859375 C 1689.609375 930.160156 1629.871094 972.328125 1563.148438 989.351562 C 1496.058594 1006.46875 1421.808594 998.148438 1356.320312 960.351562 C 1290.910156 922.578125 1246.609375 862.429688 1227.890625 795.71875 C 1209.109375 728.828125 1216.050781 655.289062 1253.171875 590.988281 L 1278.46875 605.53125 L 1253.101562 590.878906 C 1253.460938 590.25 1253.839844 589.648438 1254.238281 589.058594 C 1291.449219 525.769531 1351.191406 483.601562 1417.910156 466.578125 C 1484.980469 449.460938 1559.21875 457.769531 1624.710938 495.558594 L 1624.738281 495.5 C 1625.589844 496 1626.410156 496.519531 1627.191406 497.078125 "/>
<path fill-rule="nonzero" fill="rgb(50.193787%, 150.193787%, 180.193787%)" fill-opacity="1" d="M 238.109375 2679.996094 C 200.386719 2759.210938 159.527344 2845.046875 198.839844 2915.039062 C 258.628906 2796.289062 346.957031 2771.769531 436.300781 2747.007812 C 519.761719 2723.878906 604.265625 2700.433594 657.421875 2576.832031 C 659.96875 2569.675781 665.269531 2563.515625 672.699219 2560.070312 C 687.378906 2553.265625 704.800781 2559.652344 711.601562 2574.332031 L 685.019531 2586.652344 L 711.574219 2574.410156 C 734.964844 2624.871094 725.054688 2678.167969 704.964844 2723.742188 C 746.59375 2686.695312 785.347656 2639.496094 818.171875 2587.980469 C 857.417969 2526.386719 887.863281 2458.945312 904.425781 2395.449219 C 916.859375 2347.785156 921.421875 2302.851562 915.851562 2265.191406 C 895.03125 2338.390625 817.820312 2360.671875 728.894531 2386.285156 C 644.996094 2410.460938 548.496094 2438.296875 495.871094 2529.210938 C 493.089844 2534.484375 488.675781 2538.953125 482.925781 2541.785156 C 468.414062 2548.925781 450.839844 2542.953125 443.699219 2528.441406 L 443.761719 2528.40625 C 389.207031 2417.589844 424.910156 2318.671875 464.515625 2255.140625 C 461.320312 2258.171875 458.992188 2260.726562 457.65625 2262.269531 C 453.554688 2268.28125 447.230469 2272.789062 439.546875 2274.414062 C 423.71875 2277.769531 408.160156 2267.667969 404.804688 2251.839844 L 433.464844 2245.757812 L 404.855469 2251.820312 C 383.316406 2150.390625 451.964844 2056.160156 503.695312 2001.820312 C 268.773438 2001.535156 231.5625 2172.363281 197.242188 2330.089844 C 181.097656 2404.273438 165.511719 2475.878906 132.433594 2531.335938 C 201.085938 2521.785156 216.9375 2470.71875 218.960938 2463.007812 C 220.421875 2455.574219 224.746094 2448.71875 231.5625 2444.21875 C 245.0625 2435.3125 263.246094 2439.027344 272.152344 2452.53125 L 272.097656 2452.566406 C 315.246094 2517.976562 278.152344 2595.917969 238.109375 2679.996094 "/>
</svg>
